<svg xmlns="http://www.w3.org/2000/svg" version="1.1" xmlns:xlink="http://www.w3.org/1999/xlink" xmlns:svgjs="http://svgjs.dev/svgjs" width="2000" height="1500" viewBox="0 0 2000 1500"><rect width="2000" height="1500" fill="#804dee"></rect><g transform="matrix(0.75,0,0,0.75,249.78667664670684,-0.21332335329350371)"><svg viewBox="0 0 334 334" data-background-color="#804dee" preserveAspectRatio="xMidYMid meet" height="2000" width="2000" xmlns="http://www.w3.org/2000/svg" xmlns:xlink="http://www.w3.org/1999/xlink"><g id="tight-bounds" transform="matrix(1,0,0,1,0.04749999999998522,0.04750000000001364)"><svg viewBox="0 0 333.90454557049503 333.90454557049503" height="333.90454557049503" width="333.90454557049503"><g><svg></svg></g><g><svg viewBox="0 0 333.90454557049503 333.90454557049503" height="333.90454557049503" width="333.90454557049503"><g><path d="M0 166.952c0-92.205 74.747-166.952 166.952-166.952 92.205 0 166.952 74.747 166.953 166.952 0 92.205-74.747 166.952-166.953 166.953-92.205 0-166.952-74.747-166.952-166.953zM166.952 316.63c82.665 0 149.677-67.013 149.678-149.678 0-82.665-67.013-149.677-149.678-149.677-82.665 0-149.677 67.013-149.677 149.677 0 82.665 67.013 149.677 149.677 149.678z" data-fill-palette-color="tertiary" fill="#804dee" stroke="transparent"></path><ellipse rx="160.27418187383762" ry="160.27418187383762" cx="166.95227278524752" cy="166.95227278524752" fill="#804dee" stroke="transparent" stroke-width="0" fill-opacity="1" data-fill-palette-color="tertiary"></ellipse></g><g transform="matrix(1,0,0,1,109.8896195531155,71.17305217166896)"><svg viewBox="0 0 114.12530646426403 191.55844122715712" height="191.55844122715712" width="114.12530646426403"><g><svg viewBox="0 0 114.12530646426403 191.55844122715712" height="191.55844122715712" width="114.12530646426403"><g><svg viewBox="0 0 114.12530646426403 191.55844122715712" height="191.55844122715712" width="114.12530646426403"><g><svg viewBox="0 0 114.12530646426403 191.55844122715712" height="191.55844122715712" width="114.12530646426403"><g id="textblocktransform"><svg viewBox="0 0 114.12530646426403 191.55844122715712" height="191.55844122715712" width="114.12530646426403" id="textblock"><g><svg viewBox="0 0 114.12530646426403 191.55844122715712" height="191.55844122715712" width="114.12530646426403"><g transform="matrix(1,0,0,1,0,0)"><svg width="114.12530646426403" viewBox="1.27 -36.72 22.02 36.96" height="191.55844122715712" data-palette-color="#ffffff"><path d="M17.33-36.72L23.29-36.72 23.29-8.69Q23.29-6.15 22.36-4.42 21.44-2.69 19.87-1.64 18.31-0.59 16.28-0.17 14.26 0.24 12.11 0.24L12.11 0.24Q11.04 0.24 9.59 0.02 8.15-0.2 6.62-0.66 5.08-1.12 3.66-1.71 2.25-2.29 1.27-3.03L1.27-3.03 3.76-6.98Q4.25-6.64 5.15-6.27 6.05-5.91 7.13-5.59 8.2-5.27 9.38-5.03 10.55-4.79 11.57-4.79L11.57-4.79Q14.16-4.79 15.7-5.79 17.24-6.79 17.33-9.18L17.33-9.18 17.33-36.72Z" opacity="1" transform="matrix(1,0,0,1,0,0)" fill="#ffffff" class="wordmark-text-0" data-fill-palette-color="quaternary" id="text-0"></path></svg></g></svg></g></svg></g></svg></g><g></g></svg></g></svg></g></svg></g></svg></g><defs></defs></svg><rect width="333.90454557049503" height="333.90454557049503" fill="none" stroke="none" visibility="hidden"></rect></g></svg></g></svg>